<?xml version="1.0" encoding="UTF-8"?> <!-- Generator: Adobe Illustrator 23.0.1, SVG Export Plug-In . SVG Version: 6.00 Build 0) --> <svg xmlns="http://www.w3.org/2000/svg" xmlns:xlink="http://www.w3.org/1999/xlink" id="Layer_1" x="0px" y="0px" viewBox="0 0 151.01 49.93" style="enable-background:new 0 0 151.01 49.93;" xml:space="preserve"> <style type="text/css"> .st0{fill:#F7921E;} .st1{fill:#FFD105;} .st2{fill:#49A348;} .st3{fill:#82C341;} .st4{fill:#0071A3;} .st5{fill:#00B7F1;} .st6{fill:#D40E8C;} .st7{fill:#E584B6;} .st8{fill:#576068;} </style> <path class="st0" d="M38.9,5.22c-1.38-1.38-3.63-1.38-5.01,0c-0.73,0.73-7.12,7.05-7.12,7.05l-1,1.06c-0.3,0.3-0.7,0.24-1-0.05 l-0.25-0.28c0,0-7.11-7.04-7.84-7.77c-1.38-1.38-3.63-1.38-5.01,0c-1.38,1.39-1.38,3.63,0,5.01l10.96,10.96 c0.76-0.54,1.69-0.86,2.7-0.86c0.99,0,1.9,0.31,2.66,0.83L38.9,10.23C40.29,8.85,40.29,6.61,38.9,5.22"></path> <path class="st0" d="M21.79,3.5c0,1.94,1.57,3.5,3.5,3.5s3.5-1.57,3.5-3.5c0-1.93-1.57-3.5-3.5-3.5S21.79,1.57,21.79,3.5"></path> <path class="st1" d="M24.13,16.51c-1.01-3.54-4.18-8.05-4.18-8.05s-2.54-2.51-3.28-3.24c-1.38-1.38-3.62-1.38-5.01,0 c-1.38,1.39-1.38,3.63,0,5.01l10.96,10.96c0.68-0.48,1.5-0.79,2.39-0.84C24.84,19.36,24.56,18.05,24.13,16.51"></path> <path class="st2" d="M21.38,22.48c-0.01-0.01-0.02-0.03-0.04-0.04L10.23,11.32c-1.38-1.38-3.62-1.38-5.01,0 c-1.38,1.39-1.38,3.63,0,5.01c0.73,0.73,7.05,7.13,7.05,7.13l1.06,1c0.3,0.3,0.24,0.7-0.06,1l-0.28,0.25c0,0-7.04,7.11-7.77,7.84 c-1.38,1.38-1.38,3.63,0,5.01c1.39,1.38,3.63,1.38,5.01,0l11.1-11.1c-0.44-0.71-0.7-1.55-0.7-2.45 C20.63,24.08,20.91,23.21,21.38,22.48"></path> <path class="st2" d="M3.5,28.45c1.93,0,3.5-1.57,3.5-3.5c0-1.93-1.57-3.5-3.5-3.5c-1.93,0-3.5,1.57-3.5,3.5 C0,26.88,1.56,28.45,3.5,28.45"></path> <path class="st3" d="M16.49,26.13c-3.54,1.01-8.05,4.18-8.05,4.18s-2.51,2.54-3.25,3.28c-1.38,1.38-1.38,3.63,0,5.01 c1.39,1.38,3.63,1.38,5.01,0l11.11-11.12c0,0,0.01-0.01,0.01-0.01c-0.41-0.67-0.66-1.44-0.69-2.27 C19.62,25.36,18.2,25.65,16.49,26.13"></path> <path class="st4" d="M38.17,26.5l-1.06-1c-0.3-0.3-0.24-0.7,0.06-1l0.28-0.25c0,0,7.04-7.11,7.77-7.84c1.38-1.38,1.38-3.63,0-5.01 c-1.39-1.38-3.63-1.38-5.01,0l-11,11.01c0.5,0.75,0.8,1.65,0.8,2.62s-0.29,1.87-0.8,2.62l11.01,11c1.38,1.38,3.62,1.38,5.01,0 c1.38-1.39,1.38-3.63,0-5.01C44.49,32.9,38.17,26.5,38.17,26.5"></path> <path class="st4" d="M46.94,21.52c-1.94,0-3.5,1.57-3.5,3.5s1.57,3.5,3.5,3.5c1.93,0,3.5-1.57,3.5-3.5S48.88,21.52,46.94,21.52"></path> <path class="st5" d="M45.3,11.33c-1.38-1.38-3.63-1.38-5.01,0L29.21,22.4c0.45,0.67,0.72,1.45,0.78,2.3 c1.01-0.17,2.38-0.45,4.01-0.92c3.54-1.01,8.05-4.18,8.05-4.18s2.51-2.54,3.25-3.28C46.68,14.95,46.68,12.71,45.3,11.33"></path> <path class="st6" d="M38.87,39.7L28.01,28.84c-0.76,0.54-1.69,0.86-2.69,0.86c-1.04,0-2-0.34-2.77-0.91L11.63,39.7 c-1.38,1.38-1.38,3.62,0,5.01c1.38,1.38,3.63,1.38,5.01,0c0.73-0.73,7.13-7.05,7.13-7.05l1-1.06c0.3-0.3,0.7-0.24,1,0.06l0.25,0.28 c0,0,7.11,7.04,7.84,7.77c1.38,1.38,3.63,1.38,5.01,0C40.25,43.33,40.25,41.08,38.87,39.7"></path> <path class="st6" d="M28.75,46.44c0-1.94-1.57-3.5-3.5-3.5s-3.5,1.57-3.5,3.5c0,1.93,1.57,3.5,3.5,3.5S28.75,48.37,28.75,46.44"></path> <path class="st7" d="M38.9,39.73L28.01,28.84c-0.7,0.49-1.54,0.79-2.45,0.84c0.17,0.98,0.45,2.26,0.88,3.76 c1.01,3.54,4.18,8.05,4.18,8.05s2.54,2.51,3.28,3.24c1.38,1.38,3.62,1.38,5.01,0C40.28,43.36,40.28,41.12,38.9,39.73"></path> <g> <path class="st8" d="M64.66,10.19c-0.22-1.08-1.08-1.63-2.14-1.63c-1.82,0-2.59,1.5-2.59,3.1c0,1.75,0.77,3.2,2.61,3.2 c1.34,0,2.11-0.94,2.21-2.21h1.02c-0.19,1.91-1.38,3.07-3.31,3.07c-2.38,0-3.54-1.76-3.54-3.99c0-2.22,1.26-4.03,3.62-4.03 c1.6,0,2.91,0.86,3.15,2.49H64.66z"></path> <path class="st8" d="M71.77,15.52c-0.16,0.1-0.36,0.15-0.65,0.15c-0.47,0-0.77-0.26-0.77-0.86c-0.5,0.59-1.18,0.86-1.95,0.86 c-1.01,0-1.83-0.45-1.83-1.55c0-1.25,0.93-1.52,1.88-1.7c1.01-0.19,1.86-0.13,1.86-0.81c0-0.79-0.65-0.92-1.23-0.92 c-0.77,0-1.34,0.24-1.38,1.05h-0.91c0.05-1.37,1.12-1.85,2.35-1.85c1,0,2.08,0.23,2.08,1.52v2.85c0,0.43,0,0.62,0.29,0.62 c0.07,0,0.16-0.01,0.28-0.05V15.52z M70.29,12.68c-0.35,0.26-1.04,0.27-1.65,0.38c-0.6,0.11-1.11,0.32-1.11,1 c0,0.6,0.51,0.81,1.07,0.81c1.2,0,1.69-0.75,1.69-1.25V12.68z"></path> <path class="st8" d="M72.62,10h0.86v0.88h0.02c0.39-0.69,1.01-1.01,1.8-1.01c1.46,0,1.91,0.84,1.91,2.03v3.64h-0.91v-3.75 c0-0.68-0.43-1.11-1.12-1.11c-1.1,0-1.64,0.74-1.64,1.74v3.13h-0.91V10z"></path> <path class="st8" d="M83.48,15.52c-0.16,0.1-0.36,0.15-0.65,0.15c-0.47,0-0.77-0.26-0.77-0.86c-0.5,0.59-1.18,0.86-1.95,0.86 c-1.01,0-1.83-0.45-1.83-1.55c0-1.25,0.93-1.52,1.88-1.7c1.01-0.19,1.86-0.13,1.86-0.81c0-0.79-0.65-0.92-1.23-0.92 c-0.77,0-1.34,0.24-1.38,1.05h-0.91c0.05-1.37,1.12-1.85,2.35-1.85c1,0,2.08,0.23,2.08,1.52v2.85c0,0.43,0,0.62,0.29,0.62 c0.07,0,0.16-0.01,0.28-0.05V15.52z M82,12.68c-0.35,0.26-1.04,0.27-1.65,0.38c-0.6,0.11-1.11,0.32-1.11,1 c0,0.6,0.51,0.81,1.07,0.81c1.2,0,1.69-0.75,1.69-1.25V12.68z"></path> <path class="st8" d="M89.28,15.54h-0.91v-0.75h-0.02c-0.3,0.61-1.01,0.88-1.77,0.88c-1.7,0-2.55-1.35-2.55-2.91 c0-1.56,0.84-2.88,2.53-2.88c0.57,0,1.38,0.21,1.79,0.87h0.02V7.89h0.91V15.54z M86.71,14.86c1.22,0,1.69-1.05,1.69-2.09 c0-1.09-0.49-2.1-1.75-2.1c-1.24,0-1.66,1.06-1.66,2.14C84.99,13.86,85.53,14.86,86.71,14.86"></path> <path class="st8" d="M91.65,9h-0.91V7.89h0.91V9z M90.74,10h0.91v5.54h-0.91V10z"></path> <path class="st8" d="M97.97,15.52c-0.16,0.1-0.36,0.15-0.65,0.15c-0.47,0-0.77-0.26-0.77-0.86c-0.5,0.59-1.18,0.86-1.95,0.86 c-1.01,0-1.83-0.45-1.83-1.55c0-1.25,0.93-1.52,1.88-1.7c1.01-0.19,1.86-0.13,1.86-0.81c0-0.79-0.65-0.92-1.23-0.92 c-0.77,0-1.34,0.24-1.38,1.05h-0.91c0.05-1.37,1.12-1.85,2.35-1.85c1,0,2.08,0.23,2.08,1.52v2.85c0,0.43,0,0.62,0.29,0.62 c0.07,0,0.16-0.01,0.28-0.05V15.52z M96.49,12.68c-0.35,0.26-1.04,0.27-1.65,0.38c-0.6,0.11-1.11,0.32-1.11,1 c0,0.6,0.51,0.81,1.07,0.81c1.2,0,1.69-0.75,1.69-1.25V12.68z"></path> <path class="st8" d="M98.81,10h0.86v0.88h0.02c0.39-0.69,1.01-1.01,1.8-1.01c1.46,0,1.91,0.84,1.91,2.03v3.64h-0.91v-3.75 c0-0.68-0.43-1.11-1.12-1.11c-1.1,0-1.64,0.74-1.64,1.74v3.13h-0.91V10z"></path> <path class="st8" d="M113.28,10.19c-0.21-1.08-1.08-1.63-2.14-1.63c-1.82,0-2.59,1.5-2.59,3.1c0,1.75,0.77,3.2,2.61,3.2 c1.34,0,2.11-0.94,2.21-2.21h1.02c-0.19,1.91-1.38,3.07-3.31,3.07c-2.38,0-3.54-1.76-3.54-3.99c0-2.22,1.26-4.03,3.62-4.03 c1.6,0,2.91,0.86,3.15,2.49H113.28z"></path> <path class="st8" d="M120.21,13.78c-0.25,1.22-1.12,1.89-2.37,1.89c-1.77,0-2.6-1.22-2.66-2.91c0-1.66,1.09-2.88,2.6-2.88 c1.96,0,2.56,1.83,2.51,3.17h-4.15c-0.03,0.96,0.51,1.82,1.73,1.82c0.75,0,1.27-0.36,1.44-1.08H120.21z M119.33,12.24 c-0.04-0.87-0.7-1.56-1.6-1.56c-0.95,0-1.52,0.72-1.59,1.56H119.33z"></path> <path class="st8" d="M121.24,10h0.86v0.88h0.02c0.39-0.69,1.01-1.01,1.8-1.01c1.46,0,1.91,0.84,1.91,2.03v3.64h-0.91v-3.75 c0-0.68-0.43-1.11-1.12-1.11c-1.1,0-1.64,0.74-1.64,1.74v3.13h-0.91V10z"></path> <path class="st8" d="M128.46,10h1.1v0.8h-1.1v3.44c0,0.42,0.12,0.49,0.68,0.49h0.42v0.8h-0.7c-0.94,0-1.32-0.19-1.32-1.21V10.8 h-0.94V10h0.94V8.34h0.91V10z"></path> <path class="st8" d="M130.54,10h0.86v1.17h0.02c0.44-0.89,1.05-1.33,2.04-1.3v0.97c-1.47,0-2,0.83-2,2.24v2.47h-0.91V10z"></path> <path class="st8" d="M138.67,13.78c-0.25,1.22-1.13,1.89-2.37,1.89c-1.77,0-2.6-1.22-2.66-2.91c0-1.66,1.09-2.88,2.6-2.88 c1.96,0,2.56,1.83,2.51,3.17h-4.15c-0.03,0.96,0.51,1.82,1.73,1.82c0.75,0,1.27-0.36,1.44-1.08H138.67z M137.79,12.24 c-0.04-0.87-0.7-1.56-1.6-1.56c-0.95,0-1.52,0.72-1.59,1.56H137.79z"></path> <path class="st8" d="M61.71,21.95c1.75,0,2.87,1.16,2.87,2.93c0,1.76-1.12,2.91-2.87,2.91c-1.74,0-2.86-1.16-2.86-2.91 C58.85,23.11,59.98,21.95,61.71,21.95 M61.71,26.65c1.04,0,1.35-0.89,1.35-1.77c0-0.89-0.31-1.78-1.35-1.78 c-1.03,0-1.34,0.89-1.34,1.78C60.37,25.76,60.68,26.65,61.71,26.65"></path> <path class="st8" d="M65.57,22.1h1.45v0.77h0.03c0.39-0.62,1.05-0.92,1.69-0.92c1.62,0,2.03,0.91,2.03,2.28v3.41h-1.52v-3.13 c0-0.91-0.27-1.36-0.97-1.36c-0.82,0-1.18,0.46-1.18,1.59v2.9h-1.52V22.1z"></path> <path class="st8" d="M76.21,25.1c0,1.02,0.79,1.42,1.69,1.42c0.59,0,1.49-0.17,1.49-0.95c0-0.83-1.15-0.97-2.27-1.27 c-1.13-0.3-2.28-0.74-2.28-2.17c0-1.56,1.48-2.32,2.86-2.32c1.6,0,3.06,0.7,3.06,2.46h-1.63c-0.05-0.92-0.71-1.16-1.51-1.16 c-0.53,0-1.16,0.22-1.16,0.87c0,0.59,0.37,0.66,2.28,1.16c0.56,0.14,2.27,0.49,2.27,2.23c0,1.4-1.1,2.45-3.18,2.45 c-1.69,0-3.28-0.84-3.26-2.72H76.21z"></path> <path class="st8" d="M87.05,27.64H85.6v-0.77h-0.03c-0.39,0.62-1.05,0.92-1.69,0.92c-1.62,0-2.02-0.91-2.02-2.28V22.1h1.52v3.13 c0,0.91,0.27,1.36,0.97,1.36c0.82,0,1.18-0.46,1.18-1.59v-2.9h1.52V27.64z"></path> <path class="st8" d="M88.21,19.99h1.52v2.79h0.02c0.37-0.57,1.06-0.82,1.75-0.82c1.1,0,2.29,0.89,2.29,2.91 c0,2.04-1.19,2.93-2.29,2.93c-0.81,0-1.49-0.25-1.82-0.86h-0.02v0.71h-1.45V19.99z M90.97,23.1c-0.9,0-1.3,0.85-1.3,1.78 c0,0.92,0.4,1.77,1.3,1.77c0.9,0,1.3-0.85,1.3-1.77C92.27,23.95,91.87,23.1,90.97,23.1"></path> <path class="st8" d="M95.93,25.84c0.01,0.67,0.57,0.93,1.17,0.93c0.44,0,1-0.17,1-0.71c0-0.46-0.63-0.62-1.72-0.86 c-0.88-0.19-1.76-0.5-1.76-1.48c0-1.41,1.22-1.78,2.41-1.78c1.21,0,2.33,0.41,2.44,1.77h-1.45c-0.04-0.59-0.49-0.75-1.04-0.75 c-0.34,0-0.85,0.06-0.85,0.51c0,0.55,0.86,0.62,1.72,0.83c0.89,0.2,1.76,0.53,1.76,1.55c0,1.46-1.26,1.93-2.53,1.93 c-1.29,0-2.54-0.48-2.6-1.95H95.93z"></path> <path class="st8" d="M102.43,22.1h1.11v1.02h-1.11v2.74c0,0.51,0.13,0.64,0.64,0.64c0.16,0,0.31-0.01,0.47-0.04v1.19 c-0.26,0.04-0.59,0.05-0.89,0.05c-0.93,0-1.75-0.22-1.75-1.32v-3.27h-0.92V22.1h0.92v-1.66h1.52V22.1z"></path> <path class="st8" d="M104.21,23.81c0.09-1.42,1.36-1.85,2.6-1.85c1.1,0,2.43,0.25,2.43,1.57v2.88c0,0.5,0.05,1.01,0.19,1.23h-1.54 c-0.05-0.17-0.1-0.35-0.11-0.54c-0.48,0.5-1.19,0.68-1.87,0.68c-1.05,0-1.89-0.52-1.89-1.66c0-1.25,0.94-1.55,1.89-1.68 c0.93-0.14,1.8-0.11,1.8-0.73c0-0.65-0.45-0.75-0.99-0.75c-0.58,0-0.95,0.24-1.01,0.84H104.21z M107.73,24.93 c-0.26,0.23-0.79,0.24-1.27,0.32c-0.47,0.1-0.9,0.26-0.9,0.82c0,0.57,0.44,0.71,0.93,0.71c1.19,0,1.23-0.94,1.23-1.27V24.93z"></path> <path class="st8" d="M110.43,22.1h1.45v0.77h0.03c0.39-0.62,1.05-0.92,1.69-0.92c1.62,0,2.03,0.91,2.03,2.28v3.41h-1.52v-3.13 c0-0.91-0.27-1.36-0.97-1.36c-0.82,0-1.18,0.46-1.18,1.59v2.9h-1.52V22.1z"></path> <path class="st8" d="M120.55,24.05c-0.1-0.62-0.49-0.95-1.12-0.95c-0.98,0-1.3,0.99-1.3,1.8c0,0.79,0.31,1.75,1.26,1.75 c0.71,0,1.11-0.45,1.21-1.13h1.47c-0.19,1.47-1.21,2.27-2.67,2.27c-1.67,0-2.8-1.18-2.8-2.84c0-1.72,1.03-3,2.83-3 c1.31,0,2.51,0.69,2.6,2.1H120.55z"></path> <path class="st8" d="M124.18,25.24c0.04,0.96,0.51,1.4,1.36,1.4c0.61,0,1.1-0.38,1.2-0.72h1.34c-0.43,1.31-1.34,1.86-2.59,1.86 c-1.75,0-2.83-1.2-2.83-2.91c0-1.66,1.15-2.92,2.83-2.92c1.89,0,2.8,1.58,2.69,3.29H124.18z M126.66,24.28 c-0.14-0.77-0.47-1.18-1.21-1.18c-0.96,0-1.24,0.75-1.26,1.18H126.66z"></path> <path class="st8" d="M138.71,24.75c0,2.07-1.22,3.08-3.27,3.08c-2.06,0-3.26-1-3.26-3.08v-4.76h1.68v4.76 c0,0.84,0.21,1.66,1.58,1.66c1.2,0,1.59-0.52,1.59-1.66v-4.76h1.68V24.75z"></path> <path class="st8" d="M141.18,25.84c0.01,0.67,0.57,0.93,1.17,0.93c0.44,0,1-0.17,1-0.71c0-0.46-0.63-0.62-1.73-0.86 c-0.88-0.19-1.76-0.5-1.76-1.48c0-1.41,1.22-1.78,2.41-1.78c1.21,0,2.33,0.41,2.44,1.77h-1.45c-0.04-0.59-0.49-0.75-1.04-0.75 c-0.34,0-0.85,0.06-0.85,0.51c0,0.55,0.86,0.62,1.72,0.83c0.89,0.2,1.76,0.53,1.76,1.55c0,1.46-1.26,1.93-2.53,1.93 c-1.29,0-2.54-0.48-2.6-1.95H141.18z"></path> <path class="st8" d="M147,25.24c0.04,0.96,0.51,1.4,1.36,1.4c0.61,0,1.1-0.38,1.2-0.72h1.34c-0.43,1.31-1.34,1.86-2.59,1.86 c-1.75,0-2.83-1.2-2.83-2.91c0-1.66,1.15-2.92,2.83-2.92c1.89,0,2.8,1.58,2.69,3.29H147z M149.48,24.28 c-0.14-0.77-0.47-1.18-1.21-1.18c-0.96,0-1.24,0.75-1.26,1.18H149.48z"></path> <path class="st8" d="M58.96,36.61c0.09-1.42,1.36-1.85,2.61-1.85c1.1,0,2.43,0.25,2.43,1.57v2.88c0,0.5,0.05,1.01,0.19,1.23h-1.54 c-0.05-0.17-0.1-0.35-0.11-0.54c-0.48,0.5-1.19,0.69-1.86,0.69c-1.05,0-1.89-0.52-1.89-1.66c0-1.25,0.94-1.55,1.89-1.68 c0.93-0.14,1.8-0.11,1.8-0.73c0-0.65-0.45-0.75-0.99-0.75c-0.58,0-0.95,0.24-1.01,0.84H58.96z M62.47,37.73 c-0.26,0.22-0.79,0.24-1.26,0.32c-0.47,0.1-0.9,0.26-0.9,0.81c0,0.57,0.44,0.71,0.93,0.71c1.19,0,1.23-0.94,1.23-1.27V37.73z"></path> <path class="st8" d="M65.17,34.9h1.45v0.77h0.03c0.39-0.62,1.05-0.92,1.69-0.92c1.62,0,2.03,0.91,2.03,2.28v3.41h-1.52v-3.13 c0-0.91-0.27-1.36-0.97-1.36c-0.82,0-1.18,0.46-1.18,1.59v2.9h-1.52V34.9z"></path> <path class="st8" d="M75.48,39.74h-0.02c-0.35,0.6-0.98,0.86-1.68,0.86c-1.67,0-2.49-1.44-2.49-2.97c0-1.49,0.82-2.87,2.45-2.87 c0.65,0,1.3,0.28,1.64,0.83h0.02v-2.79h1.52v7.65h-1.45V39.74z M74.15,35.9c-1,0-1.34,0.86-1.34,1.77c0,0.87,0.4,1.78,1.34,1.78 c1.01,0,1.31-0.88,1.31-1.79C75.46,36.76,75.14,35.9,74.15,35.9"></path> <path class="st8" d="M83.3,32.79h1.72l2.86,7.65h-1.75l-0.58-1.7H82.7l-0.6,1.7h-1.7L83.3,32.79z M83.14,37.49h1.98l-0.96-2.81 h-0.02L83.14,37.49z"></path> <path class="st8" d="M92.34,39.74h-0.02c-0.35,0.6-0.98,0.86-1.68,0.86c-1.67,0-2.49-1.44-2.49-2.97c0-1.49,0.82-2.87,2.45-2.87 c0.65,0,1.3,0.28,1.64,0.83h0.02v-2.79h1.52v7.65h-1.45V39.74z M91.01,35.9c-1,0-1.34,0.86-1.34,1.77c0,0.87,0.4,1.78,1.34,1.78 c1.01,0,1.31-0.88,1.31-1.79C92.32,36.76,92,35.9,91.01,35.9"></path> <path class="st8" d="M98.89,39.74h-0.02c-0.35,0.6-0.98,0.86-1.68,0.86c-1.67,0-2.49-1.44-2.49-2.97c0-1.49,0.82-2.87,2.45-2.87 c0.65,0,1.3,0.28,1.64,0.83h0.02v-2.79h1.52v7.65h-1.45V39.74z M97.56,35.9c-1,0-1.34,0.86-1.34,1.77c0,0.87,0.4,1.78,1.34,1.78 c1.01,0,1.31-0.88,1.31-1.79C98.87,36.76,98.55,35.9,97.56,35.9"></path> <path class="st8" d="M103.05,34.05h-1.52v-1.25h1.52V34.05z M101.52,34.9h1.52v5.54h-1.52V34.9z"></path> <path class="st8" d="M108.02,36.85c-0.1-0.62-0.49-0.95-1.12-0.95c-0.98,0-1.3,0.98-1.3,1.8c0,0.79,0.31,1.75,1.26,1.75 c0.71,0,1.12-0.45,1.21-1.12h1.47c-0.19,1.47-1.21,2.27-2.67,2.27c-1.67,0-2.8-1.18-2.8-2.84c0-1.72,1.03-3,2.83-3 c1.31,0,2.51,0.69,2.6,2.1H108.02z"></path> <path class="st8" d="M112.32,34.9h1.11v1.02h-1.11v2.74c0,0.51,0.13,0.64,0.64,0.64c0.16,0,0.31-0.01,0.47-0.04v1.19 c-0.26,0.04-0.59,0.05-0.89,0.05c-0.93,0-1.75-0.22-1.75-1.32v-3.27h-0.92V34.9h0.92v-1.66h1.52V34.9z"></path> <path class="st8" d="M115.73,34.05h-1.52v-1.25h1.52V34.05z M114.21,34.9h1.52v5.54h-1.52V34.9z"></path> <path class="st8" d="M119.62,34.75c1.75,0,2.87,1.16,2.87,2.93c0,1.76-1.12,2.91-2.87,2.91c-1.74,0-2.86-1.16-2.86-2.91 C116.76,35.91,117.88,34.75,119.62,34.75 M119.62,39.45c1.04,0,1.35-0.89,1.35-1.77c0-0.89-0.31-1.78-1.35-1.78 c-1.03,0-1.34,0.89-1.34,1.78C118.28,38.56,118.59,39.45,119.62,39.45"></path> <path class="st8" d="M123.48,34.9h1.45v0.77h0.03c0.39-0.62,1.05-0.92,1.69-0.92c1.62,0,2.03,0.91,2.03,2.28v3.41h-1.52v-3.13 c0-0.91-0.27-1.36-0.97-1.36c-0.82,0-1.18,0.46-1.18,1.59v2.9h-1.52V34.9z"></path> </g> </svg> 