<?xml version="1.0" encoding="UTF-8"?> <!-- Generator: Adobe Illustrator 16.0.0, SVG Export Plug-In . SVG Version: 6.00 Build 0) --> <svg xmlns="http://www.w3.org/2000/svg" xmlns:xlink="http://www.w3.org/1999/xlink" id="Layer_1" x="0px" y="0px" width="73.553px" height="64.824px" viewBox="0 0 73.553 64.824" xml:space="preserve"> <g> <path fill="#FFFFFF" d="M18.08,51.656l-0.002,0.021l0.032-0.008L18.08,51.656z M17.271,52.559c0.005-0.001,0.012-0.001,0.019-0.001 v-0.09c-0.009,0-0.017,0.001-0.026,0.001C17.267,52.497,17.27,52.528,17.271,52.559 M14.328,31.727h-2.602v3.854 c0.64,0.077,16.193,0.051,16.459-0.021v-1.527h-0.429c-2.233,0.001-4.465,0.003-6.697,0.004c-1.493,0-2.985-0.023-4.477,0.004 c-1.1,0.02-2.076-0.833-2.191-1.938C14.379,31.978,14.351,31.856,14.328,31.727 M61.832,35.602 c0.086-0.454,0.069-3.609-0.016-3.873h-2.592c-0.023,0.161-0.049,0.299-0.066,0.438c-0.068,0.529-0.312,0.962-0.703,1.318 c-0.438,0.399-0.954,0.553-1.542,0.552c-3.649-0.009-7.301-0.006-10.95-0.006h-0.585v1.571H61.832z M37.161,62.669v-0.517V50.356 c0-3.46,0.015-6.92-0.01-10.379c-0.008-0.784,0.363-1.373,1.314-1.339c0.61,0.021,1.225-0.008,1.838-0.008 c3.804,0.002,7.607,0.005,11.411,0.008c0.266,0,0.529,0,0.801,0v-0.826c-0.061-0.018-0.097-0.036-0.133-0.036 c-10.364-0.002-20.731-0.004-31.097-0.005c-0.063,0-0.127,0.012-0.19,0.02c-0.011,0.002-0.021,0.013-0.029,0.021 c-0.011,0.008-0.018,0.019-0.018,0.019c0,0.269,0,0.528,0,0.816c1.079,0,2.125,0.002,3.17,0c2.72-0.005,5.438-0.015,8.157-0.019 c0.97-0.001,1.94,0.011,2.91,0.025c0.162,0.002,0.335,0.027,0.481,0.091c0.431,0.188,0.628,0.535,0.628,1.002 c0,1.647,0.003,3.294,0.003,4.94c0,5.833-0.001,11.668-0.002,17.502c0,0.149,0,0.299,0,0.479h0.381H37.161z M63.713,22.863 c2.823-0.077,4.684-2.455,4.541-4.858c-0.159-2.631-2.397-4.574-4.98-4.368c-2.531,0.201-4.361,2.346-4.256,4.784 C59.132,21.031,61.286,22.897,63.713,22.863 M9.915,22.867c2.5-0.024,4.616-1.964,4.628-4.59c0.012-2.683-2.088-4.574-4.477-4.653 c-2.485-0.082-4.687,1.871-4.761,4.487C5.231,20.732,7.29,22.828,9.915,22.867 M71.388,39.451v-0.394 c0.002-1.989,0.007-3.981,0.003-5.972c0-0.382-0.02-0.765-0.054-1.145c-0.135-1.435-0.667-2.722-1.541-3.853 c-1.308-1.693-3.029-2.704-5.154-2.991c-1.655-0.225-3.229,0.062-4.69,0.871c-1.67,0.921-2.856,2.284-3.559,4.058 c-0.231,0.579-0.38,1.181-0.445,1.827h1.055c0.024-0.136,0.048-0.259,0.063-0.383c0.146-1.125,1.021-1.91,2.162-1.92 c0.843-0.007,1.686-0.004,2.527,0.003c0.203,0.001,0.412,0.01,0.606,0.058c0.999,0.241,1.667,1.114,1.674,2.195 c0.009,1.25,0.002,2.502,0,3.753c0,0.101-0.008,0.203-0.023,0.302c-0.192,1.189-1.166,1.941-2.259,1.92 c-1.811-0.033-3.624-0.007-5.436-0.004c-0.135,0-0.27,0.012-0.436,0.02c0.014,0.576-0.031,1.117,0.032,1.656H71.388z M17.605,31.849c0-0.076,0.007-0.126,0-0.174c-0.261-1.664-0.966-3.11-2.153-4.304c-1.918-1.927-4.256-2.696-6.918-2.215 c-3.794,0.688-6.356,3.958-6.37,7.629c-0.007,2.105,0.003,4.212,0.006,6.317c0,0.112,0.011,0.222,0.017,0.327 c0.483,0.08,15.192,0.055,15.477-0.024v-1.63h-0.512c-1.786-0.001-3.573-0.005-5.36-0.002c-0.349,0-0.687-0.038-1-0.198 c-0.841-0.434-1.252-1.144-1.267-2.07c-0.019-1.226-0.007-2.449-0.004-3.675c0.003-1.394,1.09-2.323,2.259-2.284 c0.854,0.029,1.708,0,2.564,0.007c0.188,0.001,0.386,0.016,0.565,0.068c0.892,0.267,1.406,0.877,1.577,1.784 c0.028,0.148,0.049,0.296,0.074,0.445H17.605z M71.394,41.717c-0.188,0-0.312,0-0.439,0c-3.253-0.006-6.507-0.015-9.761-0.017 c-1.633-0.001-3.266,0.015-4.896,0.016c-1.38,0-2.758-0.009-4.138-0.018c-0.781-0.006-1.408,0.297-1.867,0.935 c-0.32,0.445-0.386,0.962-0.386,1.492c-0.002,1.774-0.004,3.549-0.006,5.322c-0.002,3.765-0.004,7.53-0.002,11.293 c0,0.229,0.011,0.459,0.04,0.687c0.087,0.678,0.63,1.204,1.307,1.23c0.573,0.024,1.147,0.022,1.722-0.004 c0.617-0.026,1.117-0.444,1.272-1.038c0.051-0.194,0.063-0.402,0.063-0.604c0.004-4.108,0.002-8.219,0.003-12.329 c0-0.19-0.001-0.382,0.015-0.572c0.025-0.324,0.183-0.571,0.448-0.763c0.247-0.177,0.521-0.183,0.805-0.183 c3.943,0.001,7.886,0.003,11.83-0.001c0.267,0,0.534-0.02,0.8-0.048c1.429-0.151,2.685-1.247,3.054-2.641 C71.492,43.581,71.357,42.678,71.394,41.717 M2.179,41.717c0,0.74-0.041,1.417,0.01,2.088c0.08,1.069,0.568,1.944,1.426,2.601 c0.706,0.541,1.516,0.763,2.395,0.762c2.566-0.004,5.131-0.006,7.697-0.007c1.429,0,2.858,0.001,4.289,0.009 c0.189,0,0.391,0,0.563,0.063c0.418,0.155,0.673,0.468,0.681,0.925c0.01,0.584-0.021,1.172-0.018,1.756 c0.005,1.43,0.025,2.855,0.029,4.283c0.005,2.284,0.013,4.569-0.005,6.854c-0.007,0.937,0.622,1.669,1.619,1.622 c0.408-0.019,0.818-0.021,1.225,0.003c0.77,0.041,1.554-0.508,1.568-1.513c0.001-0.077,0.001-0.154,0.001-0.23 c0-2.362,0.001-4.722,0-7.083c-0.002-3.165-0.003-6.331-0.007-9.496c-0.001-0.293-0.008-0.588-0.047-0.877 c-0.121-0.885-0.902-1.654-1.789-1.739c-0.455-0.044-0.917-0.021-1.376-0.021c-2.245-0.006-4.492-0.016-6.738-0.015 c-3.702,0.002-7.402,0.011-11.104,0.017C2.47,41.717,2.344,41.717,2.179,41.717 M18.316,50.943 c-0.006-0.007-0.011-0.014-0.017-0.021c0.009,0.004,0.018,0.007,0.027,0.01c0.019,0.073,0.02,0.179,0.134,0.074 c0.03-0.007,0.061-0.014,0.034-0.008c0.024-0.016-0.001,0.001-0.026,0.017C18.419,50.992,18.367,50.967,18.316,50.943 M17.551,50.701c0.001-0.052,0.001-0.102,0.001-0.151c-0.035-0.011-0.071-0.022-0.106-0.031c0,0.019,0,0.038-0.001,0.059 c0.04-0.014,0.079-0.024,0.119-0.037c-0.001,0.056-0.002,0.112-0.003,0.17l-0.025,0.011L17.551,50.701z M18.474,51.617 c-0.003,0.003-0.006,0.006-0.01,0.009c-0.021-0.016-0.044-0.031-0.02-0.015C18.416,51.607,18.445,51.612,18.474,51.617 M34.25,40.827h-9.618c0.223,0.323,0.452,0.614,0.635,0.93c0.366,0.63,0.542,1.321,0.544,2.048c0.007,1.647,0.003,3.294,0.003,4.94 c0,4.111-0.001,8.223,0,12.334c0,1.083-0.344,2.031-1.149,2.778c-0.638,0.592-1.395,0.935-2.277,0.953 c-0.625,0.015-1.251,0.019-1.875,0.007c-1.592-0.03-3.056-1.286-3.341-2.862c-0.047-0.264-0.076-0.533-0.077-0.799 c-0.005-2.63-0.005-5.261-0.001-7.89c0.001-0.47,0.048-0.938,0.044-1.407c-0.007-0.825-0.038-1.65-0.059-2.526 c-0.166-0.003-0.326-0.01-0.486-0.01c-3.46,0-6.919-0.005-10.379,0.004c-0.943,0.003-1.864-0.099-2.724-0.499 c-1.919-0.896-3.079-2.382-3.412-4.485c-0.05-0.314-0.068-0.635-0.068-0.952c-0.004-3.575-0.025-7.149,0.006-10.724 c0.023-2.73,1.054-5.06,2.991-6.986c0.768-0.761,1.647-1.367,2.618-1.839c0.057-0.028,0.115-0.056,0.167-0.089 c0.018-0.012,0.026-0.04,0.048-0.077c-1.824-1.483-2.783-3.384-2.686-5.76c0.074-1.804,0.791-3.333,2.09-4.582 c2.612-2.511,6.845-2.546,9.52,0.158c2.753,2.784,2.65,7.541-0.785,10.211c3.374,1.691,5.356,4.377,5.832,8.172h0.461 c2.579,0,5.157,0,7.736,0c0.441-0.001,0.863,0.057,1.248,0.295c0.682,0.419,1.052,1.028,1.087,1.824 c0.023,0.52,0.004,1.043,0.004,1.608c0.158,0.006,0.292,0.015,0.427,0.015c1.405,0.001,2.809-0.004,4.212,0.001 c0.726,0.002,1.451,0.03,2.175,0.028c1.378-0.002,2.757-0.021,4.136-0.027c0.523-0.004,1.046,0,1.568-0.001 c0.101-0.001,0.2-0.01,0.34-0.016c0-0.498,0.006-0.98,0-1.461c-0.007-0.364,0.061-0.711,0.229-1.034 c0.412-0.795,1.068-1.216,1.966-1.229c0.74-0.012,1.48-0.006,2.222-0.006c1.89,0,3.778,0.002,5.667,0.003h0.473 c0.175-1.816,0.775-3.438,1.822-4.882c1.039-1.434,2.375-2.516,4.016-3.279c-1.902-1.524-2.854-3.474-2.732-5.882 c0.089-1.782,0.818-3.306,2.12-4.531c2.692-2.532,6.89-2.448,9.491,0.202c1.43,1.456,2.065,3.232,1.914,5.261 c-0.153,2.03-1.096,3.658-2.715,4.937c0.132,0.071,0.227,0.128,0.327,0.178c2.896,1.487,4.676,3.834,5.359,7.009 c0.123,0.57,0.173,1.164,0.175,1.748c0.016,3.627,0.015,7.251,0.004,10.877c-0.006,1.897-0.787,3.433-2.268,4.601 c-1.004,0.79-2.166,1.189-3.441,1.201c-1.915,0.017-3.831,0.007-5.746,0.007c-1.724,0.001-3.447,0.002-5.17,0.003h-0.455v0.522 c0,3.792,0,7.584-0.002,11.375c0,1.022-0.367,1.896-1.103,2.603c-0.682,0.655-1.498,1.002-2.453,0.996 c-0.537-0.004-1.072-0.012-1.609-0.002c-1.586,0.024-3.263-1.188-3.495-3.08c-0.057-0.466-0.053-0.941-0.053-1.413 c-0.003-3.855,0.001-7.71,0.001-11.565c0-1.559,0.012-3.115-0.008-4.673c-0.016-1.203,0.34-2.257,1.138-3.159 c0.016-0.017,0.02-0.044,0.04-0.094h-9.596c-0.005,0.152-0.013,0.302-0.013,0.45c0,5.478,0.002,10.953,0.002,16.431 c0.002,1.966-0.002,3.932,0,5.898c0,0.356-0.061,0.683-0.348,0.933c-0.191,0.166-0.398,0.27-0.656,0.27 c-1.021-0.001-2.042,0.01-3.063-0.006c-0.593-0.008-0.994-0.453-0.996-1.079c-0.005-1.366-0.004-2.733-0.004-4.1 c0.001-6.089,0.002-12.179,0.003-18.269V40.827z"></path> <path fill="#FFFFFF" d="M24.69,15.232c0.244-0.045,0.429-0.083,0.614-0.11c0.29-0.041,0.581-0.099,0.871-0.102 c0.432-0.007,0.864,0.043,1.296,0.043c6.409,0.004,12.818,0.004,19.227,0.004c0.165,0,0.33-0.019,0.495-0.02 c0.215-0.001,0.432-0.009,0.642,0.015c0.328,0.038,0.653,0.098,0.979,0.15c-0.282-0.366-0.581-0.679-0.901-0.97 c-0.353-0.324-0.494-0.7-0.492-1.186c0.017-3.396,0.002-6.792,0.014-10.188c0.002-0.6-0.098-0.718-0.729-0.717 c-6.307,0.008-12.613,0.007-18.92,0.008c-0.383,0-0.767-0.007-1.15-0.001c-0.383,0.005-0.498,0.124-0.5,0.506 c-0.003,0.907-0.001,1.813-0.002,2.72c0,2.617-0.002,5.235,0.002,7.852c0.001,0.355-0.126,0.642-0.375,0.888 c-0.299,0.296-0.596,0.596-0.891,0.896C24.819,15.069,24.777,15.129,24.69,15.232 M49.575,12.835 c0.948,0.957,1.882,1.9,2.814,2.842c0.135,0.136,0.268,0.274,0.396,0.415c0.341,0.373,0.423,0.832,0.229,1.231 c-0.215,0.439-0.598,0.661-1.132,0.597c-0.544-0.065-1.083-0.168-1.622-0.261c-0.829-0.14-1.656-0.295-2.487-0.422 c-0.261-0.041-0.532-0.015-0.798-0.015c-2.885-0.001-5.77-0.001-8.653-0.001c-3.625,0.002-7.25,0.006-10.874,0.005 c-0.447,0-0.893-0.038-1.339-0.025c-0.277,0.008-0.555,0.071-0.831,0.117c-1.118,0.19-2.235,0.384-3.353,0.575 c-0.075,0.014-0.15,0.024-0.228,0.03c-0.543,0.045-0.924-0.15-1.142-0.583c-0.208-0.415-0.135-0.882,0.23-1.263 c0.52-0.545,1.055-1.074,1.583-1.609c0.537-0.545,1.075-1.088,1.613-1.633V11.6c0-3.025,0.009-6.05-0.002-9.076 c-0.004-1.075,0.708-2.054,1.67-2.371c0.309-0.103,0.65-0.145,0.976-0.146c3.956-0.01,7.912-0.006,11.868-0.006 c2.848,0,5.693-0.007,8.54,0.003c1.086,0.003,1.862,0.524,2.333,1.501c0.146,0.304,0.207,0.626,0.207,0.962 c-0.001,3.038,0,6.076,0.001,9.112V12.835z"></path> <path fill="#FFFFFF" d="M36.778,4.325c1.708,0,3.417-0.001,5.126,0.001c0.357,0,0.713,0.004,1.069,0.015 c0.555,0.016,0.97,0.396,1.034,0.937c0.065,0.547-0.271,1.03-0.822,1.163c-0.147,0.035-0.303,0.052-0.455,0.052 C38.767,6.495,34.8,6.495,30.833,6.491c-0.188,0-0.385-0.021-0.564-0.074c-0.467-0.137-0.761-0.624-0.713-1.137 c0.047-0.492,0.421-0.88,0.909-0.935c0.165-0.019,0.331-0.014,0.497-0.014C32.901,4.33,34.84,4.33,36.778,4.33V4.325z"></path> <path fill="#FFFFFF" d="M36.821,11.473c1.99,0,3.981,0.001,5.97-0.002c0.287,0,0.561,0.02,0.798,0.201 c0.361,0.277,0.515,0.759,0.378,1.2c-0.124,0.406-0.529,0.72-0.968,0.749c-0.076,0.006-0.152,0.002-0.229,0.002 c-4.004,0.001-8.011-0.001-12.017,0.003c-0.291,0-0.556-0.053-0.788-0.235c-0.361-0.28-0.509-0.761-0.37-1.204 c0.128-0.404,0.499-0.686,0.949-0.711c0.141-0.01,0.281-0.003,0.422-0.003H36.821z"></path> <path fill="#FFFFFF" d="M36.782,10.042c-1.99,0-3.982,0-5.973,0.002c-0.27,0-0.532-0.01-0.769-0.173 c-0.406-0.277-0.577-0.72-0.449-1.203c0.111-0.415,0.5-0.733,0.946-0.773c0.064-0.006,0.129-0.005,0.191-0.005 c4.034,0,8.067,0.001,12.098-0.002c0.264,0,0.508,0.045,0.725,0.198c0.391,0.278,0.552,0.765,0.409,1.224 c-0.131,0.423-0.533,0.725-1.014,0.728c-1.099,0.009-2.195,0.007-3.294,0.008c-0.955,0.001-1.914,0.001-2.871,0.001V10.042z"></path> </g> <g> </g> <g> </g> <g> </g> <g> </g> <g> </g> <g> </g> </svg> 