<?xml version="1.0" encoding="UTF-8"?> <!-- Generator: Adobe Illustrator 16.0.0, SVG Export Plug-In . SVG Version: 6.00 Build 0) --> <svg xmlns="http://www.w3.org/2000/svg" xmlns:xlink="http://www.w3.org/1999/xlink" id="Layer_1" x="0px" y="0px" width="73.555px" height="77.059px" viewBox="0 0 73.555 77.059" xml:space="preserve"> <g> <path fill="#FFFFFF" d="M44.648,58.766c0.162-0.171,0.25-0.221,0.259-0.279c0.034-0.297,0.071-0.598,0.065-0.895 c-0.072-3.325,0.951-6.327,2.711-9.101c0.801-1.261,1.709-2.456,2.485-3.732c3.277-5.384,3.488-10.944,0.361-16.384 c-2.884-5.017-7.377-7.67-13.246-7.894c-9.94-0.38-18.214,9.078-15.734,19.468c0.588,2.46,1.829,4.56,3.278,6.57 c1.947,2.703,3.464,5.597,3.881,8.955c0.135,1.087,0.156,2.188,0.23,3.291H44.648z M36.893,61.569 c-2.324,0-4.649,0.008-6.973-0.001c-2.877-0.014-3.636-0.805-3.811-3.732c-0.089-1.487-0.062-3.068-0.577-4.419 c-0.708-1.858-1.736-3.64-2.883-5.274c-2.471-3.521-4.173-7.312-4.168-11.646c0.012-10.184,7.267-17.584,16.398-18.548 c10.033-1.06,18.492,5.601,20.167,15.439c0.796,4.672-0.282,8.904-2.713,12.865c-0.625,1.019-1.319,1.995-1.998,2.979 c-1.793,2.596-2.749,5.407-2.706,8.621c0.039,2.969-0.833,3.699-3.763,3.713C41.541,61.577,39.217,61.569,36.893,61.569"></path> <path fill="#FFFFFF" d="M37.121,67.735c2.242,0,4.484-0.008,6.726,0.005c0.595,0.004,1.257-0.073,1.765,0.158 c0.469,0.214,1.02,0.759,1.08,1.217c0.061,0.466-0.322,1.131-0.717,1.472c-0.341,0.296-0.969,0.352-1.471,0.354 c-5.081,0.023-10.162,0.019-15.243,0.003c-0.437-0.001-0.902-0.075-1.303-0.238c-0.694-0.283-1.125-0.897-0.888-1.604 c0.163-0.487,0.647-0.977,1.115-1.22c0.423-0.222,1.019-0.139,1.539-0.141C32.189,67.729,34.656,67.735,37.121,67.735"></path> <path fill="#FFFFFF" d="M46.316,66.138c-6.148,0-11.826,0.017-17.505-0.015c-1.168-0.006-1.799-0.634-1.793-1.537 c0.005-0.874,0.683-1.524,1.795-1.623c0.668-0.061,1.345-0.013,2.018-0.013c4.561,0.002,9.122,0.006,13.682,0.003 c0.863-0.001,1.785,0.105,2.054,1.001C46.744,64.544,46.435,65.278,46.316,66.138"></path> <path fill="#FFFFFF" d="M29.108,72.503h15.334c-0.745,2.167-3.365,4.162-5.445,4.416C34.946,77.415,31.447,76.735,29.108,72.503"></path> <path fill="#FFFFFF" d="M38.203,11.584h-2.604c0-0.973-0.001-1.913,0-2.854c0.001-2.236,0.012-4.473-0.001-6.71 C35.593,1.054,35.752,0.226,36.911,0c0.955,0.221,1.289,0.91,1.291,1.81C38.209,5.001,38.203,8.19,38.203,11.584"></path> <path fill="#FFFFFF" d="M19.872,55.933c-2.34,2.297-4.595,4.56-6.909,6.763c-1.203,1.145-1.767,0.978-2.708-0.83 c2.533-2.554,5.127-5.171,7.862-7.929C18.692,54.59,19.167,55.13,19.872,55.933"></path> <path fill="#FFFFFF" d="M55.94,54.2c2.528,2.556,5.089,5.146,7.586,7.67c-0.896,1.754-1.415,1.94-2.543,0.96 c-0.959-0.833-1.81-1.79-2.729-2.671c-1.449-1.388-2.916-2.756-4.572-4.318C54.551,55.208,55.153,54.771,55.94,54.2"></path> <path fill="#FFFFFF" d="M20.062,18.112c-0.762,0.623-1.326,1.085-1.898,1.553c-1.867-1.186-6.995-6.475-7.753-8.012 c1.007-1.318,1.446-1.394,2.558-0.396c0.442,0.397,0.847,0.837,1.275,1.25C16.116,14.313,17.991,16.118,20.062,18.112"></path> <path fill="#FFFFFF" d="M55.541,19.858c-0.49-0.629-0.901-1.157-1.457-1.868c2.238-2.235,4.557-4.605,6.945-6.904 c0.836-0.804,1.203-0.672,2.35,0.392C62.759,13.075,58.97,17.157,55.541,19.858"></path> </g> <rect x="62.324" y="35.94" fill="#FFFFFF" width="11.23" height="2.128"></rect> <g> <path fill="#FFFFFF" d="M11.49,36.049v2.122c-3.42,0-6.823,0.031-10.225-0.018c-1.217-0.017-1.474-0.783-1.117-1.824 C1.701,35.693,8.308,35.526,11.49,36.049"></path> <path fill="#FFFFFF" d="M37.561,24.956c-0.756,0.148-1.397,0.311-2.048,0.396c-4.448,0.589-7.465,3.065-9.395,7.029 c-0.404,0.827-0.528,1.93-1.864,2.171c-0.837-0.336-1.376-0.85-0.999-1.985c1.849-5.57,7.055-9.789,12.822-9.78 C37.561,22.789,37.68,22.978,37.561,24.956"></path> </g> <g> </g> <g> </g> <g> </g> <g> </g> <g> </g> <g> </g> </svg> 