<?xml version="1.0" encoding="UTF-8"?> <!-- Generator: Adobe Illustrator 16.0.0, SVG Export Plug-In . SVG Version: 6.00 Build 0) --> <svg xmlns="http://www.w3.org/2000/svg" xmlns:xlink="http://www.w3.org/1999/xlink" id="Layer_1" x="0px" y="0px" width="187.846px" height="99.346px" viewBox="0 0 187.846 99.346" xml:space="preserve"> <g id="Jrclcf_1_"> <g> <path fill="#FEFFFF" d="M0.109,96.894C0.19,96.819,0.27,96.746,0.211,96.8c0.048-0.062-0.019,0.023-0.085,0.11 c-0.083,0.068-0.165,0.137-0.106,0.088C-0.03,97.056,0.04,96.975,0.109,96.894z M39.968,82.996l-0.026-0.026 c0.071-0.628,0.061-1.277,0.227-1.879c1.3-4.735,2.684-9.447,3.94-14.193c0.789-2.981,1.512-5.989,2.065-9.022 c0.723-3.969,1.359-7.961,1.815-11.968c0.272-2.39-0.539-4.801-2.416-6.193c-1.597-1.184-3.724-0.348-5.433,0.552 c-0.885,0.465-1.6,1.294-2.314,2.032c-0.772,0.798-1.441,1.694-2.178,2.527c-1.688,1.909-3.496,3.722-5.067,5.722 c-4.22,5.368-8.465,10.725-12.466,16.255c-3.395,4.692-6.538,9.574-9.652,14.462c-2.177,3.418-4.161,6.962-6.142,10.5 c-0.688,1.229-1.108,2.608-1.651,3.92c0.155,0.078,0.309,0.156,0.463,0.234c0.295-0.335,0.614-0.652,0.88-1.01 c2.043-2.736,4.065-5.49,6.116-8.222c2.765-3.682,5.554-7.346,8.326-11.022c3.588-4.759,7.085-9.589,10.777-14.265 c3.991-5.055,8.125-9.998,12.279-14.921c1.026-1.216,2.182-2.434,4.034-2.973c0.104,0.704,0.288,1.233,0.24,1.741 c-0.3,3.155-0.422,6.351-1.029,9.449c-1.964,10.037-4.852,19.845-7.779,29.634c-1.204,4.028-2.513,8.027-3.863,12.01 c-0.397,1.173-0.264,2.039,0.767,2.688c0.972,0.612,2.141,0.32,2.956-0.7c0.296-0.372,0.515-0.804,0.779-1.201 c2.418-3.642,4.78-7.322,7.27-10.914c5.537-7.985,11.617-15.579,18.276-22.618c8.159-8.623,16.306-17.318,26.01-24.323 c5.216-3.766,10.215-7.85,15.573-11.396c8.027-5.312,16.281-10.278,25.161-14.103c2.038-0.878,3.996-1.94,6.029-2.829 c3.344-1.463,6.69-2.928,10.088-4.256c3.988-1.558,8.04-2.952,12.048-4.458c1.291-0.485,2.533-1.097,3.798-1.651 c-0.438-0.466-0.814-0.635-1.135-0.562c-8.032,1.816-16.017,3.714-23.8,6.542c-9.331,3.391-18.191,7.693-26.604,12.854 c-7.848,4.815-15.491,9.964-22.75,15.689c-6.77,5.34-13.024,11.227-19.282,17.116c-3.075,2.894-5.894,6.064-8.75,9.182 c-2.149,2.346-4.246,4.747-6.24,7.225C47.48,73.377,43.742,78.201,39.968,82.996z M133.499,46.93l0.102,0.088 c-0.297,0.731-0.56,1.479-0.897,2.191c-3.215,6.782-7.207,13.119-11.343,19.355c-4.04,6.092-8.238,12.079-12.439,18.062 c-1.969,2.806-4.106,5.492-6.146,8.206c1.025,0.895,2.031,1.773,3.091,2.698c24.241-22.094,50.344-41.457,77.854-59.02 c-0.438-0.079-0.833-0.066-1.154,0.094c-5.993,2.979-12.126,5.712-17.93,9.023c-10.996,6.272-21.287,13.629-31.258,21.421 c-4.134,3.231-8.178,6.578-12.286,9.844c-0.473,0.376-1.092,0.566-1.643,0.844c-0.125-0.163-0.249-0.325-0.373-0.487 c1.464-2.141,2.993-4.239,4.379-6.429c2.936-4.635,5.871-9.273,8.665-13.995c1.736-2.936,3.389-5.948,4.739-9.074 c0.831-1.923,1.083-4.113,1.449-6.209c0.086-0.491-0.266-1.311-0.68-1.59c-1.505-1.018-3.349-0.815-4.869,0.343 c-0.378,0.289-0.747,0.593-1.129,0.876c-5.807,4.301-11.68,8.516-17.4,12.929c-4.091,3.155-7.978,6.574-11.955,9.878 c-4.525,3.76-9.079,7.487-13.566,11.293c-3.885,3.295-7.684,6.692-11.551,10.009c-0.536,0.459-1.25,0.71-1.88,1.058 c-0.061-0.88,0.094-1.407,0.376-1.854c1.741-2.753,3.352-5.608,5.306-8.205c3.583-4.762,7.111-9.61,11.146-13.976 c4.927-5.329,10.25-10.308,15.596-15.228c4.152-3.821,8.487-7.464,12.94-10.93c8.569-6.669,17.939-12.093,27.606-16.991 c3.904-1.978,7.924-3.734,11.936-5.489c6.778-2.963,13.761-5.301,21.052-6.674c2.217-0.417,4.408-0.976,6.61-1.47 c-2.371-0.228-4.671-0.116-6.956,0.137c-3.147,0.348-6.326,0.596-9.413,1.252c-6.996,1.489-13.834,3.523-20.286,6.705 c-5.208,2.568-10.63,4.768-15.605,7.723c-6.001,3.565-11.702,7.655-17.402,11.701c-7.282,5.169-13.931,11.128-20.339,17.323 c-3.891,3.761-7.508,7.823-11.048,11.923c-3.167,3.665-6.15,7.5-9.05,11.382c-4.354,5.827-7.675,12.248-10.46,18.958 c-0.438,1.056-0.689,1.928,0.336,2.772c1.261,1.04,2.254,1.259,3.396,0.335c2.906-2.349,5.763-4.763,8.591-7.206 c3.074-2.656,6.033-5.446,9.147-8.053c7.133-5.971,14.328-11.867,21.501-17.79c6.313-5.213,12.446-10.655,19.365-15.094 C130.942,48.746,132.209,47.819,133.499,46.93z"></path> <path fill-rule="evenodd" clip-rule="evenodd" fill="#A8BFC8" d="M133.499,46.93c-1.29,0.889-2.557,1.816-3.875,2.662 c-6.918,4.438-13.052,9.881-19.365,15.094c-7.173,5.923-14.368,11.819-21.501,17.79c-3.114,2.606-6.074,5.396-9.147,8.053 c-2.828,2.443-5.685,4.857-8.591,7.206c-1.143,0.924-2.135,0.705-3.396-0.335c-1.026-0.845-0.774-1.717-0.336-2.772 c2.785-6.71,6.105-13.131,10.46-18.958c2.9-3.882,5.884-7.717,9.05-11.382c3.541-4.1,7.158-8.162,11.048-11.923 c6.408-6.195,13.057-12.154,20.339-17.323c5.701-4.046,11.401-8.136,17.402-11.701c4.975-2.956,10.397-5.155,15.605-7.723 c6.451-3.182,13.29-5.216,20.286-6.705c3.087-0.657,6.266-0.904,9.413-1.252c2.284-0.252,4.584-0.365,6.956-0.137 c-2.203,0.494-4.394,1.053-6.61,1.47c-7.291,1.373-14.273,3.71-21.052,6.674c-4.012,1.754-8.032,3.511-11.936,5.489 c-9.667,4.898-19.037,10.322-27.606,16.991c-4.453,3.466-8.789,7.109-12.94,10.93c-5.346,4.92-10.669,9.898-15.596,15.228 c-4.035,4.365-7.563,9.214-11.146,13.976c-1.954,2.597-3.564,5.452-5.306,8.205c-0.282,0.446-0.437,0.974-0.376,1.854 c0.631-0.348,1.345-0.599,1.88-1.058c3.868-3.316,7.666-6.714,11.551-10.009c4.487-3.806,9.041-7.533,13.566-11.293 c3.977-3.304,7.864-6.723,11.955-9.878c5.721-4.413,11.594-8.627,17.4-12.929c0.383-0.283,0.751-0.587,1.129-0.876 c1.521-1.158,3.364-1.36,4.869-0.343c0.414,0.28,0.766,1.1,0.68,1.59c-0.366,2.096-0.619,4.286-1.449,6.209 c-1.35,3.125-3.003,6.138-4.739,9.074c-2.793,4.722-5.729,9.36-8.665,13.995c-1.387,2.189-2.915,4.288-4.379,6.429 c0.125,0.162,0.249,0.324,0.373,0.487c0.551-0.277,1.17-0.468,1.643-0.844c4.108-3.266,8.151-6.612,12.286-9.844 c9.971-7.792,20.262-15.148,31.258-21.421c5.804-3.311,11.938-6.044,17.93-9.023c0.322-0.16,0.717-0.173,1.154-0.094 c-27.51,17.562-53.613,36.926-77.854,59.02c-1.06-0.925-2.066-1.804-3.091-2.698c2.041-2.714,4.177-5.4,6.146-8.206 c4.201-5.983,8.399-11.971,12.439-18.062c4.136-6.236,8.127-12.573,11.343-19.355c0.337-0.712,0.6-1.46,0.897-2.191 c0.093-0.223,0.187-0.445,0.28-0.668c-0.072-0.024-0.145-0.049-0.217-0.073C133.609,46.495,133.554,46.712,133.499,46.93z M118.449,80.695l-0.094,0.151l0.159,0.015L118.449,80.695z M74.738,89.086l0.099-0.15l-0.161-0.019L74.738,89.086z"></path> <path fill-rule="evenodd" clip-rule="evenodd" fill="#A8BFC8" d="M39.968,82.996c3.774-4.795,7.512-9.619,11.338-14.372 c1.995-2.478,4.091-4.879,6.24-7.225c2.856-3.117,5.675-6.288,8.75-9.182c6.258-5.89,12.512-11.776,19.282-17.116 c7.259-5.725,14.901-10.874,22.75-15.689c8.412-5.161,17.272-9.463,26.604-12.854c7.783-2.828,15.768-4.726,23.8-6.542 c0.321-0.072,0.697,0.097,1.135,0.562c-1.265,0.554-2.507,1.167-3.798,1.651c-4.009,1.506-8.061,2.899-12.048,4.458 c-3.398,1.328-6.745,2.793-10.088,4.256c-2.033,0.889-3.991,1.951-6.029,2.829c-8.88,3.824-17.134,8.79-25.161,14.103 c-5.358,3.546-10.357,7.63-15.573,11.396c-9.704,7.005-17.852,15.7-26.01,24.323c-6.66,7.039-12.74,14.633-18.276,22.618 c-2.49,3.592-4.852,7.272-7.27,10.914c-0.264,0.397-0.483,0.829-0.779,1.201c-0.815,1.021-1.984,1.312-2.956,0.7 c-1.031-0.649-1.164-1.516-0.767-2.688c1.35-3.982,2.659-7.981,3.863-12.01c2.927-9.789,5.814-19.597,7.779-29.634 c0.606-3.099,0.729-6.294,1.029-9.449c0.048-0.507-0.136-1.037-0.24-1.741c-1.852,0.54-3.007,1.757-4.034,2.973 c-4.154,4.923-8.288,9.866-12.279,14.921c-3.692,4.676-7.189,9.506-10.777,14.265c-2.772,3.677-5.561,7.341-8.326,11.022 c-2.051,2.731-4.073,5.485-6.116,8.222c-0.267,0.357-0.585,0.675-0.88,1.01c-0.154-0.078-0.308-0.156-0.463-0.234 c0.543-1.312,0.963-2.69,1.651-3.92c1.981-3.538,3.965-7.082,6.142-10.5c3.114-4.888,6.257-9.77,9.652-14.462 c4.001-5.53,8.246-10.888,12.466-16.255c1.572-2,3.379-3.813,5.067-5.722c0.737-0.833,1.406-1.729,2.178-2.527 c0.714-0.738,1.429-1.567,2.314-2.032c1.709-0.899,3.836-1.735,5.433-0.552c1.877,1.392,2.688,3.803,2.416,6.193 c-0.457,4.007-1.093,7.999-1.815,11.968c-0.553,3.033-1.276,6.041-2.065,9.022c-1.256,4.746-2.64,9.458-3.94,14.193 c-0.166,0.602-0.156,1.251-0.227,1.879c-0.06,0.115-0.119,0.23-0.179,0.346C39.831,83.209,39.899,83.103,39.968,82.996z"></path> <path fill-rule="evenodd" clip-rule="evenodd" fill="#A8BFC8" d="M0.126,96.91c0.067-0.087,0.134-0.173,0.085-0.11 c0.059-0.054-0.021,0.02-0.102,0.094L0.126,96.91z"></path> <path fill-rule="evenodd" clip-rule="evenodd" fill="#A8BFC8" d="M0.109,96.894c-0.07,0.081-0.14,0.162-0.09,0.104 c-0.059,0.049,0.024-0.02,0.106-0.088L0.109,96.894z"></path> <path fill-rule="evenodd" clip-rule="evenodd" fill="#FEFFFF" d="M133.499,46.93c0.055-0.218,0.11-0.436,0.165-0.653 c0.072,0.024,0.145,0.049,0.217,0.073c-0.093,0.223-0.187,0.446-0.28,0.668L133.499,46.93z"></path> <polygon fill-rule="evenodd" clip-rule="evenodd" fill="#FEFFFF" points="118.449,80.695 118.514,80.861 118.355,80.847 "></polygon> <polygon fill-rule="evenodd" clip-rule="evenodd" fill="#FEFFFF" points="74.738,89.086 74.676,88.917 74.837,88.936 "></polygon> <path fill-rule="evenodd" clip-rule="evenodd" fill="#FEFFFF" d="M39.968,82.996c-0.068,0.106-0.137,0.213-0.205,0.319 c0.06-0.115,0.119-0.23,0.179-0.346L39.968,82.996z"></path> </g> </g> <g> </g> <g> </g> <g> </g> <g> </g> <g> </g> <g> </g> </svg> 