<?xml version="1.0" encoding="UTF-8"?> <!-- Generator: Adobe Illustrator 16.0.0, SVG Export Plug-In . SVG Version: 6.00 Build 0) --> <svg xmlns="http://www.w3.org/2000/svg" xmlns:xlink="http://www.w3.org/1999/xlink" id="Layer_1" x="0px" y="0px" width="80.762px" height="65.819px" viewBox="0 0 80.762 65.819" xml:space="preserve"> <g> <path fill="#FFFFFF" d="M41.775,60.68c0.115-0.009,0.185,0.009,0.228-0.02c0.198-0.126,0.392-0.262,0.584-0.397 c1.641-1.151,3.434-1.732,5.434-1.729c9.529,0.018,19.061,0.006,28.591,0.003c0.205,0,0.411,0.017,0.614-0.007 c0.537-0.06,0.848-0.38,0.904-0.927c0.021-0.209,0.006-0.422,0.006-0.635c0.002-17.5-0.002-35.001,0.02-52.501 c0.002-1.601-0.406-1.72-1.66-1.717C69.186,2.771,61.877,2.76,54.569,2.76c-2.311,0.002-4.619-0.001-6.929,0.003 c-1.21,0.002-2.354,0.342-3.242,1.162c-0.81,0.748-1.578,1.514-2.623,1.873V60.68z M39.001,5.966 c-0.739-0.526-1.498-0.907-2.05-1.496c-1.093-1.166-2.389-1.702-3.913-1.703c-9.531-0.007-19.062,0-28.592,0.002 c-0.322,0-0.646-0.022-0.964,0.01C2.98,2.829,2.697,3.134,2.642,3.654C2.62,3.863,2.636,4.077,2.636,4.288 C2.634,13.084,2.631,21.88,2.63,30.675c0,8.797-0.001,17.593,0.001,26.388c0,1.213,0.26,1.473,1.448,1.481 c0.205,0.001,0.41,0,0.614,0c9.297,0,18.594,0.02,27.891-0.015c2.13-0.008,4.021,0.602,5.754,1.836 c0.185,0.131,0.384,0.241,0.663,0.415V5.966z M0.025,30.674c0-8.886,0.033-17.772-0.025-26.658C-0.013,1.959,1.425-0.01,3.922,0 c5.789,0.026,11.577,0.006,17.366,0.006c3.8,0.001,7.601,0.002,11.402,0.009c1.36,0.002,2.669,0.257,3.906,0.865 c0.747,0.368,1.41,0.841,1.978,1.472c1.166,1.298,2.457,1.293,3.626,0.005c1.174-1.293,2.651-1.962,4.311-2.201 c0.865-0.125,1.748-0.143,2.623-0.144C58.342,0.003,67.551,0.01,76.76,0.007c1.623,0,2.931,0.585,3.637,2.167 c0.223,0.501,0.333,1.103,0.336,1.657c0.021,6.166,0.009,12.332,0.01,18.498c0.002,9.339,0.004,18.679,0.006,28.02 c0,2.356-0.06,4.717,0.012,7.071c0.066,2.203-1.858,3.842-3.713,3.83c-9.617-0.053-19.236-0.015-28.855-0.036 c-1.844-0.004-3.436,0.609-4.818,1.827c-0.395,0.35-0.718,0.79-1.051,1.208c-0.222,0.279-0.384,0.609-0.607,0.886 c-0.715,0.885-1.835,0.915-2.6,0.069c-0.218-0.241-0.383-0.532-0.568-0.803c-1.413-2.068-3.337-3.169-5.79-3.172 c-9.619-0.013-19.237-0.011-28.856,0.009c-1.619,0.003-2.852-0.62-3.539-2.153c-0.224-0.499-0.316-1.104-0.319-1.661 c-0.027-4.715-0.019-9.43-0.02-14.146C0.023,39.077,0.024,34.876,0.025,30.674L0.025,30.674z"></path> <path fill="#FFFFFF" d="M11.192,32.041v15.795c2.734,0.02,5.404,0.023,8.086-0.001V32.041H11.192z M21.934,39.979v8.608 c0,0.212,0.012,0.424-0.003,0.635c-0.056,0.799-0.512,1.284-1.284,1.309c-0.905,0.028-1.811,0.014-2.717,0.015 c-2.483,0.001-4.967,0-7.451,0c-0.117,0-0.233-0.002-0.35-0.005c-1.168-0.031-1.607-0.501-1.613-1.736 c-0.004-0.905-0.002-1.812-0.002-2.718c-0.001-4.984-0.002-9.969-0.002-14.953c0-0.091-0.003-0.181,0.002-0.271 c0.056-1.063,0.506-1.535,1.534-1.551c1.227-0.019,2.454-0.007,3.681-0.006c2.192,0.001,4.383,0.003,6.574,0.007 c1.189,0.002,1.626,0.444,1.63,1.694C21.941,33.997,21.935,36.987,21.934,39.979L21.934,39.979z"></path> <path fill="#FFFFFF" d="M21.089,13.387c-3.567,0-7.134,0-10.7-0.002c-0.234,0-0.47,0.009-0.701-0.021 c-0.641-0.079-1.08-0.539-1.144-1.174c-0.057-0.564,0.271-1.167,0.826-1.354c0.351-0.118,0.743-0.143,1.117-0.144 c3.684-0.01,7.368-0.006,11.052-0.006c3.333,0,6.666-0.001,9.999,0.002c0.32,0,0.649-0.014,0.96,0.051 c0.724,0.148,1.117,0.69,1.081,1.422c-0.035,0.723-0.494,1.196-1.264,1.218c-1.051,0.03-2.104,0.016-3.157,0.017 c-2.69,0.001-5.379,0-8.069,0V13.387z"></path> <path fill="#FFFFFF" d="M18.366,20.016c2.628,0,5.255-0.001,7.883,0.001c0.291,0.001,0.586-0.001,0.874,0.04 c0.577,0.083,1.01,0.543,1.098,1.126c0.082,0.54-0.245,1.169-0.778,1.385c-0.263,0.107-0.566,0.151-0.851,0.151 c-5.46,0.007-10.92,0.005-16.38,0.002c-0.203,0-0.412,0.003-0.608-0.044c-0.635-0.15-1.091-0.749-1.068-1.371 c0.025-0.683,0.527-1.229,1.247-1.264c0.874-0.041,1.751-0.024,2.627-0.025C14.395,20.015,16.38,20.016,18.366,20.016"></path> <path fill="#FFFFFF" d="M29.206,29.313c0.99,0,1.982,0.031,2.971-0.01c0.787-0.033,1.386,0.541,1.404,1.274 c0.019,0.812-0.509,1.408-1.367,1.417c-2.038,0.021-4.077,0.019-6.116-0.005c-0.834-0.009-1.344-0.544-1.354-1.327 c-0.01-0.777,0.446-1.312,1.23-1.337c1.076-0.033,2.154-0.008,3.232-0.008V29.313z"></path> <path fill="#FFFFFF" d="M29.334,41.269c-0.994,0-1.988,0.014-2.982-0.005c-0.735-0.014-1.229-0.409-1.364-1.032 c-0.19-0.874,0.369-1.614,1.285-1.641c1.022-0.029,2.046-0.013,3.069-0.012c0.994,0,1.989-0.021,2.982,0.017 c0.96,0.036,1.525,0.96,1.159,1.867c-0.226,0.56-0.667,0.811-1.255,0.802c-0.497-0.008-0.994,0-1.491,0.001 c-0.467,0-0.935,0-1.403,0V41.269z"></path> <path fill="#FFFFFF" d="M29.256,50.537c-0.964,0-1.929,0.014-2.893-0.004c-0.875-0.018-1.378-0.492-1.396-1.273 c-0.02-0.818,0.508-1.39,1.386-1.4c1.958-0.022,3.916-0.021,5.874,0.001c0.733,0.008,1.224,0.442,1.327,1.071 c0.146,0.887-0.344,1.562-1.23,1.595c-1.022,0.039-2.045,0.009-3.068,0.009V50.537z"></path> <path fill="#FFFFFF" d="M49.848,29.25h19.723c0.025-0.307,0.07-0.599,0.07-0.891c0.004-4.712,0.004-9.425-0.002-14.138 c0-0.256-0.053-0.512-0.08-0.742c-1.389-0.195-19.061-0.121-19.711,0.076V29.25z M59.62,32.003c-3.449,0-6.898,0-10.347-0.001 c-0.204,0-0.409,0.002-0.614-0.005c-0.979-0.035-1.449-0.504-1.467-1.505c-0.02-1.058-0.01-2.115-0.01-3.173 c-0.002-4.774-0.002-9.549,0-14.323c0-0.303-0.006-0.606,0.014-0.906c0.055-0.829,0.447-1.275,1.234-1.378 c0.318-0.041,0.643-0.023,0.965-0.023c6.955-0.001,13.912-0.001,20.869,0c0.146,0,0.293-0.007,0.438,0.003 c1.038,0.057,1.536,0.571,1.553,1.66c0.02,1.18,0.006,2.357,0.006,3.536c0,4.744-0.004,9.488,0.004,14.233 c0,0.772-0.11,1.466-0.912,1.769c-0.239,0.09-0.514,0.108-0.771,0.109C66.926,32.006,63.274,32.003,59.62,32.003"></path> <path fill="#FFFFFF" d="M59.67,41.264c-3.531,0-7.064,0-10.597,0c-0.262-0.001-0.528,0.018-0.787-0.015 c-0.653-0.082-1.081-0.609-1.088-1.309c-0.007-0.69,0.417-1.233,1.063-1.337c0.201-0.031,0.408-0.018,0.611-0.018 c7.24,0,14.48-0.001,21.719,0.001c1.022,0,1.639,0.501,1.649,1.323c0.013,0.82-0.612,1.351-1.624,1.352 C66.969,41.267,63.32,41.264,59.67,41.264"></path> <path fill="#FFFFFF" d="M56.997,50.543c-2.627,0.001-5.254,0.001-7.88,0c-0.233,0-0.469,0.006-0.7-0.013 c-0.746-0.062-1.197-0.535-1.223-1.268c-0.025-0.705,0.428-1.281,1.113-1.398c0.171-0.03,0.349-0.018,0.523-0.018 c5.43,0,10.858,0.002,16.287,0.004c0.176,0,0.352-0.013,0.525,0.009c0.723,0.092,1.234,0.706,1.195,1.424 c-0.039,0.69-0.541,1.23-1.26,1.239c-2.044,0.026-4.087,0.017-6.13,0.02C58.631,50.544,57.814,50.542,56.997,50.543"></path> </g> <g> </g> <g> </g> <g> </g> <g> </g> <g> </g> <g> </g> </svg> 