<?xml version="1.0" encoding="UTF-8"?> <!-- Generator: Adobe Illustrator 16.0.0, SVG Export Plug-In . SVG Version: 6.00 Build 0) --> <svg xmlns="http://www.w3.org/2000/svg" xmlns:xlink="http://www.w3.org/1999/xlink" id="Layer_1" x="0px" y="0px" width="80.865px" height="84.619px" viewBox="0 0 80.865 84.619" xml:space="preserve"> <g> <path fill="#FFFFFF" d="M80.865,22.188c-0.179,0.771-0.365,1.544-0.533,2.32c-0.833,3.898-2.726,7.183-5.394,9.985 C69.193,40.53,63.41,46.53,57.659,52.56c-6.919,7.256-17.798,7.66-25.075,1.896c-0.711-0.564-1.392-1.195-1.995-1.887 c-1.583-1.814-0.872-4.345,1.361-5.048c0.975-0.309,1.763,0.075,2.498,0.646c0.767,0.596,1.458,1.305,2.244,1.869 c4.877,3.493,11.945,3.241,16.644-1.579c5.938-6.102,11.788-12.296,17.662-18.467c2.411-2.532,3.826-5.62,4.004-9.175 c0.364-7.269-4.43-13.162-10.638-14.407c-4.835-0.97-8.952,0.54-12.406,4.167c-4.1,4.303-8.213,8.596-12.321,12.891 c-0.338,0.355-0.663,0.729-1.035,1.04c-1.135,0.955-2.512,0.95-3.614,0.019c-1.139-0.96-1.449-2.535-0.696-3.872 c0.268-0.476,0.66-0.888,1.039-1.285c4.228-4.437,8.452-8.878,12.701-13.29c3.057-3.175,6.661-5.233,10.99-5.783 c0.22-0.029,0.426-0.195,0.638-0.297h4.314c0.262,0.116,0.518,0.293,0.791,0.334c7.387,1.132,13.576,6.943,15.389,14.478 c0.258,1.073,0.475,2.16,0.711,3.239V22.188z"></path> <path fill="#FFFFFF" d="M0,62.429c0.175-0.779,0.351-1.557,0.521-2.333c0.822-3.758,2.583-6.978,5.167-9.694 c5.531-5.818,11.065-11.632,16.634-17.408c7.307-7.582,19.103-7.518,26.301-0.525c0.817,0.794,1.473,1.612,1.401,2.884 c-0.068,1.161-0.506,2.043-1.501,2.579c-1.053,0.566-2.076,0.498-3.025-0.254c-0.477-0.378-0.924-0.794-1.377-1.205 c-4.728-4.261-12.694-4.282-17.515,0.669c-5.722,5.879-11.362,11.85-17.004,17.816c-2.361,2.498-3.654,5.588-3.785,9.075 c-0.237,6.383,3.466,11.835,9.145,13.743c5.179,1.742,9.803,0.437,13.685-3.496c3.698-3.75,7.31-7.588,10.933-11.415 c0.812-0.859,1.687-1.358,2.863-1.195c1.847,0.254,2.981,2.281,2.189,4.052c-0.272,0.607-0.697,1.171-1.151,1.649 c-3.58,3.781-7.159,7.567-10.791,11.298c-3.023,3.104-6.593,5.122-10.858,5.653c-0.217,0.028-0.418,0.194-0.628,0.297h-3.954 c-0.276-0.102-0.545-0.266-0.828-0.294C9.112,83.564,2.22,77.18,0.611,69.417C0.44,68.583,0.205,67.766,0,66.941V62.429z"></path> </g> <g> </g> <g> </g> <g> </g> <g> </g> <g> </g> <g> </g> </svg> 